<?xml version="1.0" standalone="no"?>
<!DOCTYPE svg PUBLIC "-//W3C//DTD SVG 20010904//EN"
 "http://www.w3.org/TR/2001/REC-SVG-20010904/DTD/svg10.dtd">
<svg version="1.0" xmlns="http://www.w3.org/2000/svg"
 width="200.000000pt" height="200.000000pt" viewBox="0 0 200.000000 200.000000"
 preserveAspectRatio="xMidYMid meet">

<g transform="translate(0.000000,200.000000) scale(0.100000,-0.100000)"
fill="#000000" stroke="none">
<path d="M851 1909 c-29 -5 -95 -23 -145 -40 -288 -96 -500 -319 -592 -624
-25 -81 -28 -105 -28 -245 0 -139 3 -164 27 -241 54 -176 120 -290 239 -409
131 -131 283 -212 473 -251 293 -61 612 37 826 253 340 343 358 885 42 1250
-117 136 -267 230 -448 283 -101 30 -296 42 -394 24z m-41 -798 c0 -153 4
-261 11 -278 56 -148 302 -148 358 0 7 17 11 125 11 278 l0 249 45 0 45 0 0
-248 c0 -270 -6 -314 -54 -377 -14 -18 -52 -46 -83 -62 -50 -24 -70 -28 -143
-28 -73 0 -93 4 -143 28 -31 16 -69 44 -83 62 -48 63 -54 107 -54 377 l0 248
45 0 45 0 0 -249z"/>
</g>
</svg>
